<?xml version="1.0" encoding="iso-8859-1"?>
<!-- Generator: Adobe Illustrator 21.0.0, SVG Export Plug-In . SVG Version: 6.00 Build 0)  -->
<svg version="1.1" id="Capa_1" xmlns="http://www.w3.org/2000/svg" xmlns:xlink="http://www.w3.org/1999/xlink" x="0px" y="0px"
	 viewBox="0 0 692.31 138.36" style="enable-background:new 0 0 692.31 138.36;" xml:space="preserve">
<g>
	<path style="fill:#D01931;" d="M581,97.95l25.71-44.33l3.36-53.61L604.3,0L533.1,122.75l3.01,5.18L581,97.95z M587.09,108.34
		l-48.32,24.15l2.98,5.2l141.88,0.26l2.86-4.96l-48.44-24.61L587.09,108.34z M621.59,0.03l-6.18-0.02l3.06,53.62L644,98.11
		l45.13,30.34l3.18-5.41L621.59,0.03z M621.59,0.03"/>
	<path style="fill:#2B2C2B;" d="M420.48,86.07l-0.02,18.3c-0.04,21.4-14.72,33.39-35.2,33.97h-4.43
		c-20.5-0.85-35.03-12.83-34.99-34.09v-18.3c0.07-21.45,14.75-33.34,35.32-33.93c1.04-0.02,3.06,0,4.07,0
		C405.89,52.68,420.53,64.79,420.48,86.07 M381.74,69.77c-8.07,0.45-15.83,4.61-15.86,16.26v18.34c-0.03,11.2,7.71,15.71,15.79,16.2
		c0.41,0.05,2.45,0.05,2.89,0.02c7.92-0.45,15.77-4.75,15.79-16.18l0.02-18.34c0.04-11.52-7.82-15.83-15.87-16.3
		C383.51,69.7,382.67,69.7,381.74,69.77 M451.33,88.3c0,0,30.08-34.23,31.88-36.14l25.14,0.06l-36.55,41.3l38.35,42.54l-25.48-0.04
		L451.3,98.91l-0.06,37.06L431,135.93l0.19-104.27l20.22,0.03L451.33,88.3z M165.26,100.48l0.04-14.75
		c0.05-21.44-14.93-33.44-35.44-34.14l-3.87-0.02c-20.65,0.64-35.34,12.58-35.35,34l-0.04,18.2c-0.04,20.42,15.16,33.09,34.81,34.11
		c2.09,0.04,3.18-0.02,4.58,0c24.6,0.04,33.8-12.42,34.93-26.68l-18.51-0.05c-0.49,2.7-1.4,9.62-16.91,9.61
		c-2.72-0.03-6.49-0.7-9.2-1.59c-11.49-3.85-9.66-18.04-9.66-18.81L165.26,100.48z M110.62,84.21c0-11.03,7.33-15.32,16.01-15.66
		c0.93-0.02,1.87-0.05,2.69,0.02c8.8,0.36,16.17,5.02,16.15,15.72v1.42l-34.88-0.03L110.62,84.21z M250.02,100.61l0.03-14.72
		c0.05-21.44-14.94-33.44-35.47-34.17h-3.83c-20.69,0.64-35.41,12.58-35.44,34l-0.02,18.22c-0.04,20.38,15.14,33.1,34.82,34.11
		c2.14,0.04,3.18,0,4.6,0c24.64,0.04,33.77-12.45,34.91-26.67l-18.41-0.07c-0.6,2.71-1.44,9.62-17.04,9.6
		c-2.7-0.02-6.43-0.7-9.09-1.59c-11.6-3.83-9.69-18.02-9.71-18.78L250.02,100.61z M195.31,84.38c0.03-11.06,7.39-15.36,16.01-15.68
		c0.91-0.03,1.89-0.01,2.74,0.02c8.77,0.35,16.15,5.01,16.12,15.7v1.43l-34.9-0.05L195.31,84.38z M300.36,52.02
		c-9.38-0.02-15.8,2.53-19.33,5.56l0.02-26.2l-20.08-0.03l-0.17,104.27h3.51c0,0,8.92-4.99,9.41-5.16
		c1.29,1.38,10.09,7.83,22.25,7.83c1.55,0.02,2.98,0.13,4.48,0.04c20.32-0.42,35.04-13.04,35.09-33.97l0.02-18.19
		C335.61,65.68,320.85,52.04,300.36,52.02 M315.45,104.43c-0.01,11.41-7.94,15.71-15.82,16.23c-0.41,0-2.51-0.02-2.88-0.04
		c-8.06-0.54-15.8-4.99-15.8-16.22l0.05-18.33c0.02-11.68,7.78-15.78,15.82-16.31c0.97-0.07,1.84-0.11,2.83,0.01
		c7.97,0.55,15.85,4.75,15.84,16.36L315.45,104.43z M88.06,135.32l-38.6-43.06c1.92,0.11,3.83,0.19,5.78,0.19
		c13.26,0.02,29.77-8.35,29.8-29.59c0.07-25.47-21.07-31.85-39.82-31.86l-45-0.11L0,135.15l20.39,0.05V88.66l41.83,46.61
		L88.06,135.32z M20.52,48.75l24.45,0.07c11.3,0,21.29,3.58,21.29,14.32c-0.03,10.77-6.27,14.63-21.34,14.56l-24.46-0.02
		L20.52,48.75z M20.52,48.75"/>
</g>
</svg>
